<svg width="142" height="33" viewBox="0 0 142 33" fill="none" xmlns="http://www.w3.org/2000/svg">
<path d="M133.669 8.37169C135.824 7.61426 137.212 6.03219 137.827 3.4493C138.505 5.94501 139.762 7.68328 142 8.35716C139.901 9.16363 138.413 10.6549 137.837 13.305C137.157 10.8038 135.892 9.05283 133.671 8.37169H133.669Z" fill="#000"/>
<path d="M7.20953 32.3425C6.60221 32.3425 5.9777 32.2734 5.3341 32.1354C4.69049 31.9974 4.0106 31.7376 3.29442 31.3562C2.57824 30.9747 1.82005 30.4044 1.01793 29.6415L1.41899 29.191C2.6088 30.299 3.67638 30.9965 4.62365 31.2853C5.57091 31.5741 6.41887 31.7176 7.17133 31.7176C8.84623 31.7176 10.1449 31.4688 11.0673 30.9729C11.9898 30.477 12.6391 29.8177 13.0153 28.9985C13.3916 28.1793 13.6036 27.273 13.6532 26.2812L13.6895 21.5368L13.9072 21.7439C13.3973 23.0826 12.5169 24.1669 11.2679 24.9988C10.0169 25.8307 8.62852 26.2449 7.09876 26.2449C5.78863 26.2449 4.59882 25.9452 3.53124 25.344C2.46365 24.7445 1.60806 23.9308 0.964453 22.9027C0.320847 21.8765 0 20.7267 0 19.4571C0 18.1184 0.328487 16.9359 0.983552 15.9079C1.63862 14.8816 2.50567 14.0842 3.58662 13.5193C4.66566 12.9544 5.86311 12.6711 7.17324 12.6711C8.62852 12.6711 9.95201 13.058 11.1418 13.8317C12.3316 14.6055 13.193 15.5918 13.7277 16.7924L13.6188 17.1739L13.8366 12.949H14.3828V26.3139C14.3828 27.3293 14.1765 28.2938 13.764 29.2056C13.3515 30.1174 12.6219 30.8676 11.5792 31.4561C10.5345 32.0446 9.07923 32.3388 7.20953 32.3388V32.3425ZM0.727637 19.4607C0.727637 20.6159 1.0122 21.6603 1.58323 22.594C2.15235 23.5294 2.92965 24.2741 3.9132 24.8281C4.89675 25.3821 5.98152 25.66 7.17133 25.66C8.36114 25.66 9.44591 25.3894 10.4295 24.8463C11.413 24.305 12.196 23.5948 12.7785 22.7175C13.361 21.8402 13.6647 20.8938 13.6895 19.8785V18.389C13.4947 17.4191 13.0879 16.549 12.4691 15.7753C11.8504 15.0015 11.0864 14.3912 10.1755 13.9407C9.26448 13.4903 8.26374 13.265 7.17133 13.265C5.98152 13.265 4.89484 13.5248 3.9132 14.0443C2.92965 14.5637 2.15235 15.2903 1.58323 16.2257C1.0122 17.1612 0.727637 18.2401 0.727637 19.4625V19.4607Z" fill="#000"/>
<path d="M18.4965 -3.8147e-06H19.2241V26.0396H18.4965V-3.8147e-06Z" fill="#000"/>
<path d="M21.8807 19.4607C21.8807 18.2147 22.2015 17.0722 22.8451 16.0332C23.4887 14.9942 24.3501 14.1696 25.431 13.5575C26.5101 12.9453 27.719 12.6402 29.0539 12.6402C30.3889 12.6402 31.6016 12.9472 32.694 13.5575C33.7864 14.1696 34.6535 14.9942 35.2971 16.0332C35.9407 17.0722 36.2615 18.2147 36.2615 19.4607C36.2615 20.7067 35.9388 21.8783 35.2971 22.9064C34.6535 23.9344 33.7864 24.7482 32.694 25.3476C31.6016 25.9488 30.387 26.2485 29.0539 26.2485C27.7209 26.2485 26.5101 25.9543 25.431 25.3657C24.3501 24.7772 23.4887 23.9744 22.8451 22.959C22.2015 21.9437 21.8807 20.7776 21.8807 19.4625V19.4607ZM22.6102 19.4607C22.6102 20.6159 22.8948 21.6603 23.4658 22.594C24.0349 23.5294 24.8122 24.2741 25.7958 24.8281C26.7793 25.3821 27.8641 25.66 29.0539 25.66C30.2437 25.66 31.3228 25.3821 32.2949 24.8281C33.265 24.2741 34.0423 23.5294 34.6248 22.594C35.2073 21.6585 35.4995 20.6141 35.4995 19.4607C35.4995 18.3073 35.2073 17.2956 34.6248 16.362C34.0423 15.4265 33.265 14.6764 32.2949 14.1115C31.3247 13.5466 30.2437 13.2632 29.0539 13.2632C27.8641 13.2632 26.7106 13.5629 25.7404 14.1641C24.7702 14.7654 24.0044 15.5373 23.4467 16.4837C22.8891 17.43 22.6102 18.4235 22.6102 19.4607Z" fill="#000"/>
<path d="M45.5833 12.9508L51.5171 25.6582H51.2994L57.1606 12.9508H57.8882L51.372 26.8352L46.966 17.3137L42.8886 26.8352L36.3723 12.9508H37.1L43.1063 25.7272L42.816 25.5892L46.6032 16.6562L44.8557 12.9508H45.5833Z" fill="#000"/>
<path d="M61.1292 12.5003L61.3106 16.2748L61.0566 15.9278C61.5417 14.7508 62.3495 13.8208 63.4782 13.1397C64.6069 12.4585 65.8388 12.1189 67.1737 12.1189C67.9739 12.1189 68.6958 12.2642 69.3394 12.5512C69.983 12.84 70.5044 13.2323 70.9055 13.7282C71.3065 14.2241 71.5434 14.7962 71.6159 15.4429L71.3982 15.6499C71.9081 14.4965 72.7083 13.6192 73.8007 13.018C74.8932 12.4186 76.0696 12.1171 77.332 12.1171C78.6918 12.1171 79.7708 12.4931 80.5729 13.2432C81.3731 13.9934 81.7857 14.9688 81.8105 16.1694V26.0378H80.0993V16.5163C80.0745 15.708 79.809 15.0215 79.2991 14.4566C78.7892 13.8917 78.0119 13.5847 76.9691 13.5393C76.0219 13.5393 75.1491 13.77 74.3469 14.2313C73.5467 14.6927 72.8955 15.3048 72.3989 16.0659C71.9005 16.8269 71.6274 17.6825 71.5796 18.6288V26.0396H69.8684V16.5182C69.8436 15.7099 69.5705 15.0233 69.0491 14.4584C68.5278 13.8935 67.7447 13.5865 66.7001 13.5411C65.7299 13.5411 64.8361 13.7718 64.0244 14.2331C63.2109 14.6945 62.5615 15.323 62.0764 16.1204C61.5913 16.9159 61.3488 17.8005 61.3488 18.7686V26.0396H59.6376V12.5003H61.1311H61.1292Z" fill="#000"/>
<path d="M91.7472 26.3175C90.2671 26.3175 88.9551 26.0051 87.8149 25.3821C86.6728 24.7591 85.781 23.9108 85.1393 22.8373C84.4957 21.7639 84.1748 20.5578 84.1748 19.2191C84.1748 17.8804 84.5147 16.7034 85.1946 15.6172C85.8745 14.5329 86.7893 13.6664 87.9429 13.0198C89.0964 12.3732 90.3759 12.0499 91.7835 12.0499C93.4813 12.0499 94.9079 12.5239 96.0615 13.4703C97.215 14.4166 98.0457 15.6517 98.5557 17.1757L86.1037 21.7457L85.5938 20.5687L96.9896 16.3438L96.6248 16.8288C96.2123 15.906 95.5878 15.1087 94.7494 14.4402C93.9129 13.7718 92.8854 13.4358 91.6727 13.4358C90.5803 13.4358 89.5968 13.6901 88.724 14.1968C87.8493 14.7054 87.1522 15.3866 86.6308 16.2403C86.1094 17.094 85.8478 18.0639 85.8478 19.1483C85.8478 20.1636 86.0961 21.11 86.5945 21.9873C87.0911 22.8646 87.7901 23.5693 88.6877 24.0997C89.5853 24.6319 90.6166 24.8953 91.7816 24.8953C92.5589 24.8953 93.3037 24.7573 94.0199 24.4794C94.736 24.2014 95.372 23.8454 95.9316 23.4059L96.8063 24.5829C96.1264 25.0915 95.3434 25.5056 94.4572 25.8289C93.5711 26.1522 92.6677 26.3139 91.7453 26.3139L91.7472 26.3175Z" fill="#000"/>
<path d="M105.072 26.6281C103.664 26.6281 102.511 26.2231 101.613 25.4166C100.716 24.6083 100.242 23.5693 100.194 22.2997V11.5304H103.943V21.0173C103.991 21.7566 104.216 22.3615 104.617 22.8355C105.018 23.3096 105.668 23.5566 106.565 23.5802C107.39 23.5802 108.124 23.3441 108.767 22.87C109.411 22.3978 109.919 21.7511 110.297 20.932C110.673 20.1128 110.861 19.1719 110.861 18.1093V11.5304H114.611V26.0396H111.225L110.933 22.6811L111.078 23.2351C110.763 23.8818 110.314 24.4648 109.732 24.9843C109.149 25.5038 108.458 25.907 107.656 26.1958C106.856 26.4846 105.992 26.6281 105.07 26.6281H105.072Z" fill="#000"/>
<path d="M126.771 26.3865C125.654 26.3865 124.586 26.1504 123.567 25.6763C122.547 25.2041 121.733 24.5629 121.128 23.7546L121.345 22.6811V33H117.633V11.2888H120.874L121.384 14.8217L120.983 13.8172C121.735 12.9853 122.663 12.2933 123.767 11.7393C124.871 11.1853 126.103 10.9074 127.463 10.9074C128.895 10.9074 130.18 11.2307 131.322 11.8773C132.462 12.5239 133.362 13.4358 134.017 14.6128C134.672 15.7898 135.001 17.1757 135.001 18.7686C135.001 20.3616 134.642 21.6948 133.927 22.8373C133.211 23.9798 132.233 24.8572 130.996 25.4693C129.758 26.0814 128.351 26.3865 126.773 26.3865H126.771ZM126.042 23.5821C126.964 23.5821 127.82 23.375 128.608 22.959C129.397 22.5431 130.027 21.9727 130.501 21.2444C130.975 20.5178 131.211 19.7041 131.211 18.8032C131.211 17.8568 130.986 17.0195 130.537 16.2929C130.089 15.5664 129.493 14.9942 128.754 14.5783C128.013 14.1623 127.193 13.9552 126.296 13.9552C125.446 13.9552 124.693 14.0987 124.038 14.3875C123.383 14.6763 122.824 15.0741 122.363 15.5827C121.901 16.0913 121.575 16.7034 121.38 17.4173V20.0837C121.525 20.754 121.817 21.3534 122.254 21.8837C122.692 22.4141 123.238 22.8301 123.893 23.1298C124.548 23.4295 125.264 23.5802 126.042 23.5802V23.5821Z" fill="#000"/>
</svg>
