<svg width="33" height="31" viewBox="0 0 33 31" fill="none" xmlns="http://www.w3.org/2000/svg">
<path d="M3.03546 12.5C9.38556 9.6831 12.053 2.99296 12.593 0C15.6709 10.5634 22.3125 12.5 21.9886 12.5C14.8609 14.6127 12.593 24.6479 12.593 25C10.8111 13.2042 2.38749 12.9066 3.03546 12.5Z" fill="#FFC93F"/>
<path d="M22.0205 20C25.6969 18.4225 27.2412 14.6761 27.5538 13C29.3358 18.9155 33.1809 20 32.9934 20C28.8668 21.1831 27.5538 26.8028 27.5538 27C26.5222 20.3944 21.6454 20.2277 22.0205 20Z" fill="#FFC93F"/>
<path d="M0.0111985 21C2.01649 20.0986 2.85885 17.9577 3.02937 17C4.00133 20.3803 6.0987 21 5.99639 21C3.74555 21.6761 3.02937 24.8873 3.02937 25C2.46666 21.2254 -0.193423 21.1301 0.0111985 21Z" fill="#FFC93F"/>
</svg>
